<svg width="468" height="343" xmlns="http://www.w3.org/2000/svg" preserveAspectRatio="none" viewBox="0 0 468 343">
  <metadata>__IMG_MINIFIED__</metadata><defs><linearGradient id="a" x1="92.496" x2="361.461" y1="143.724" y2="96.298" gradientUnits="userSpaceOnUse"><stop offset="0" stop-color="#5b87fd"/><stop offset=".232" stop-color="#77a3fd"/><stop offset=".557" stop-color="#9ac5fd"/><stop offset=".824" stop-color="#afdafd"/><stop offset="1" stop-color="#b7e2fe"/></linearGradient><linearGradient id="b" x1="53.352" x2="312.909" y1="327.643" y2="270.062" gradientUnits="userSpaceOnUse"><stop offset="0" stop-color="#da89f5"/><stop offset=".16" stop-color="#d585f4"/><stop offset=".335" stop-color="#c87cf2"/><stop offset=".518" stop-color="#b26def"/><stop offset=".707" stop-color="#9357ea"/><stop offset=".897" stop-color="#6c3ce4"/><stop offset="1" stop-color="#542be1"/></linearGradient><linearGradient id="d" x1="202.983" x2="301.794" y1="361.218" y2="273.243" gradientUnits="userSpaceOnUse"><stop offset="0" stop-color="#7954f8"/><stop offset="1" stop-color="#2525d4"/></linearGradient><linearGradient id="e" x1="225.238" x2="222.655" y1="308.185" y2="179.852" gradientUnits="userSpaceOnUse"><stop offset="0" stop-color="#15125e"/><stop offset="1" stop-color="#3a53f9"/></linearGradient><linearGradient id="f" x1="136.373" x2="308.872" y1="146.434" y2="140.41" gradientUnits="userSpaceOnUse"><stop offset="0" stop-color="#3a53f9"/><stop offset="1" stop-color="#80afff"/></linearGradient><linearGradient id="g" x1="192.426" x2="282.728" y1="78.789" y2="326.12" gradientUnits="userSpaceOnUse"><stop offset=".041" stop-color="#b7e2fe"/><stop offset=".17" stop-color="#bbd5fc"/><stop offset=".404" stop-color="#c8b4f9"/><stop offset=".678" stop-color="#db87f4"/><stop offset=".793" stop-color="#c57ff7"/><stop offset=".867" stop-color="#b57afb"/><stop offset="1" stop-color="#6d9afe"/></linearGradient></defs><path d="M0 0h468.137v343.463H0z" style="fill:none"/><path d="M345.505 151.139c-44.98-2.904-98.68-10.296-129.249-6.074-28.788 3.975-51.923 8.15-56.804 7.004-12.085-2.838-27.721 1.821-38.532 3.897-4.644.891-30.158 12.389-27.004-11.127C101.15 90.91 149.211 75.13 210.634 75.21c37.217.048 123.453 8.672 150.259 17.872z" style="fill:url(#a)"/><path d="M310.998 246.941c11.142 12.295 26.019 27.673 16.872 41.438C290.906 344 135.287 353.184 67.438 335.002l29.3-64.755c58.228 12.373 170.211 2.531 214.26-23.306" style="fill:url(#b)"/><path d="M352.386 270.181c-19.356 71.685-189.963 73.282-189.963 73.282s83.93-16.636 110.597-54.202c13.472-18.979 4.794-30.323 9.538-42.319l69.829 23.239Z" style="fill:url(#d)"/><path d="M155.718 160.787c-13.289 22.413 189.087 34.81 196.668 79.861-21.443 64.978-66.994 71.603-66.994 71.603s22.61-62.976-42.247-82.198c-33.815-10.022-154.122-25.284-149.457-83.244z" style="fill:url(#e)"/><path d="M107.963 154.169c-1.516-17.433-3.211-19.608 39.71-23.064 36.785-2.961 172.459 13.254 197.832 20.034-136.924-8.693-182.817-2.106-189.786 9.647z" style="fill:url(#f)"/><path d="M252.215 333.259c17.973-6.151 37.994-25.528 49.807-39.82 16.211-19.614 17.158-42.782-3.388-58.778-29.943-23.313-84.786-30.143-124.308-36.482-24.297-3.897-65.603-14.093-77.299-34.914-11.224-19.979 3.758-58.942 33.872-72.936-24.298 20.198-20.123 42.302-14.156 51.461 12.213 18.745 42.734 19.955 60.237 22.099l71.923 8.812c33.86 4.149 79.988 14.344 106.596 33.36 23.098 16.507 27.825 43.705 11.622 66.222-21.714 30.176-74.486 55.483-114.907 60.976Z" style="fill:url(#g)"/></svg>