<svg xmlns="http://www.w3.org/2000/svg" width="371" height="98" fill="none" preserveAspectRatio="none" viewBox="0 0 371 98">
  <metadata>__IMG_MINIFIED__</metadata><path fill="url(#a)" d="M100.741 27.51c-16.296-1.053-35.75-3.731-46.826-2.201-10.43 1.44-18.81 2.952-20.58 2.537-4.378-1.028-10.042.66-13.959 1.412-1.683.323-10.926 4.488-9.783-4.031C12.213 5.688 29.626-.03 51.879 0c13.483.017 44.726 3.142 54.437 6.475z"/><path fill="url(#b)" d="M88.24 62.217c4.036 4.455 9.426 10.026 6.112 15.013C80.96 97.38 24.58 100.708 0 94.12l10.615-23.46c21.095 4.483 61.666.918 77.624-8.443"/><path fill="url(#c)" d="M103.234 70.637c-7.013 25.97-68.822 26.55-68.822 26.55S64.82 91.158 74.48 77.548c4.881-6.876 1.737-10.985 3.456-15.331z"/><path fill="url(#d)" d="M31.983 31.005c-4.814 8.12 68.505 12.61 71.251 28.932-7.768 23.541-24.271 25.941-24.271 25.941s8.191-22.815-15.306-29.78C51.407 52.469 7.82 46.939 9.51 25.94z"/><path fill="url(#e)" d="M14.682 28.607c-.55-6.316-1.164-7.104 14.386-8.356 13.327-1.073 62.48 4.802 71.673 7.258-49.606-3.15-66.233-.762-68.758 3.496z"/><path fill="url(#f)" d="M66.943 93.49c6.511-2.23 13.765-9.25 18.044-14.427 5.874-7.106 6.217-15.5-1.227-21.295-10.848-8.446-30.717-10.92-45.036-13.217-8.802-1.412-23.767-5.105-28.004-12.649-4.067-7.238 1.36-21.354 12.27-26.424-8.803 7.318-7.29 15.326-5.128 18.644 4.424 6.791 15.482 7.23 21.823 8.006l26.057 3.193c12.267 1.503 28.979 5.197 38.619 12.086 8.368 5.98 10.08 15.834 4.21 23.991-7.867 10.933-26.985 20.101-41.63 22.091"/><path fill="#2a2f63" d="M151.204 64.421q2.892 0 4.697-.637 3.423-1.22 3.423-4.537 0-1.935-1.699-2.998-1.698-1.035-5.333-1.831l-4.14-.929q-6.103-1.38-8.438-2.998-3.953-2.707-3.953-8.465 0-5.254 3.821-8.73 3.82-3.476 11.224-3.476 6.182 0 10.547 3.277t4.578 9.512h-7.855q-.213-3.528-3.078-5.015-1.91-.982-4.75-.982-3.157 0-5.041 1.274t-1.884 3.556q0 2.095 1.857 3.131 1.195.69 5.095 1.619l6.74 1.618q4.431 1.062 6.687 2.84 3.502 2.76 3.502 7.987 0 5.36-4.099 8.902t-11.583 3.542q-7.641 0-12.02-3.49-4.378-3.487-4.378-9.591h7.801q.37 2.68 1.459 4.006 1.991 2.415 6.82 2.415m44.58-20.166q3.503 3.741 3.503 10.986 0 7.642-3.437 11.648-3.436 4.008-8.849 4.007-3.45 0-5.731-1.725-1.248-.955-2.442-2.786v15.072h-7.482V41.151h7.244v4.272q1.22-1.883 2.6-2.972 2.52-1.936 5.997-1.937 5.068 0 8.597 3.74m-4.299 11.357q0-3.344-1.526-5.917-1.525-2.574-4.948-2.574-4.114 0-5.653 3.9-.795 2.07-.795 5.255 0 5.04 2.679 7.085 1.593 1.194 3.768 1.194 3.157 0 4.816-2.441 1.658-2.443 1.659-6.502m19.955-24.889V37.7h-7.668v-6.98zm0 10.428v28.923h-7.668V41.15zm20.778 6.979q-4.564 0-6.129 2.972-.876 1.671-.876 5.148v13.824h-7.616V41.15h7.218v5.042q1.751-2.892 3.052-3.954 2.121-1.777 5.519-1.777.212 0 .358.013.145.015.65.04v7.748a21 21 0 0 0-2.176-.133m6.609-3.848q2.997-3.82 10.295-3.82 4.75 0 8.438 1.883 3.689 1.885 3.689 7.112v13.267q0 1.38.053 3.344.078 1.486.451 2.016.37.532 1.114.876v1.114h-8.226a8.4 8.4 0 0 1-.477-1.645 20 20 0 0 1-.213-1.751 15.6 15.6 0 0 1-3.608 2.892q-2.442 1.406-5.519 1.407-3.928 0-6.488-2.243-2.561-2.24-2.561-6.355 0-5.334 4.113-7.721 2.256-1.3 6.634-1.857l2.574-.319q2.096-.265 2.998-.663 1.619-.69 1.619-2.15 0-1.778-1.234-2.454t-3.622-.677q-2.68 0-3.794 1.327-.796.982-1.062 2.653h-7.297q.238-3.794 2.123-6.236m5.625 20.326q1.06.876 2.601.876 2.44 0 4.497-1.433 2.056-1.432 2.136-5.227V56.01q-.716.45-1.446.73-.73.278-2.003.517l-1.699.319q-2.388.423-3.422 1.034-1.752 1.035-1.752 3.21 0 1.938 1.088 2.787m50.63 2.548q-4.378 4.005-11.198 4.006-8.438 0-13.267-5.412-4.83-5.44-4.83-14.913 0-10.242 5.493-15.789 4.776-4.829 12.153-4.829 9.871 0 14.435 6.475 2.521 3.634 2.707 7.297h-8.173q-.796-2.812-2.043-4.246-2.23-2.547-6.607-2.547-4.459 0-7.032 3.595t-2.574 10.176q0 6.582 2.72 9.858t6.912 3.277q4.299 0 6.555-2.812 1.247-1.513 2.069-4.538h8.094q-1.062 6.395-5.414 10.401m24.758-2.733q2.892 0 4.697-.637 3.423-1.22 3.423-4.537 0-1.935-1.699-2.998-1.698-1.035-5.333-1.831l-4.14-.929q-6.104-1.38-8.438-2.998-3.954-2.707-3.954-8.465 0-5.254 3.821-8.73t11.224-3.476q6.183 0 10.548 3.277t4.577 9.512h-7.854q-.213-3.528-3.078-5.015-1.91-.982-4.75-.982-3.157 0-5.041 1.274t-1.884 3.556q0 2.095 1.857 3.131 1.195.69 5.095 1.619l6.74 1.618q4.431 1.062 6.687 2.84 3.502 2.76 3.502 7.987 0 5.36-4.1 8.902-4.098 3.543-11.582 3.542-7.641 0-12.02-3.49-4.379-3.487-4.379-9.591h7.802q.37 2.68 1.459 4.006 1.99 2.415 6.82 2.415m35.159 0q2.892 0 4.697-.637 3.423-1.22 3.423-4.537 0-1.935-1.698-2.998-1.698-1.035-5.334-1.831l-4.139-.929q-6.104-1.38-8.439-2.998-3.954-2.707-3.953-8.465 0-5.254 3.821-8.73 3.82-3.476 11.224-3.476 6.183 0 10.547 3.277t4.578 9.512h-7.855q-.212-3.528-3.078-5.015-1.91-.982-4.749-.982-3.159 0-5.042 1.274t-1.884 3.556q0 2.095 1.858 3.131 1.194.69 5.094 1.619l6.74 1.618q4.432 1.062 6.687 2.84Q371 53.41 371 58.637q0 5.36-4.1 8.902-4.1 3.543-11.582 3.542-7.642 0-12.021-3.49-4.378-3.487-4.378-9.591h7.801q.372 2.68 1.459 4.006 1.991 2.415 6.82 2.415"/><defs><linearGradient id="a" x1="-1.596" x2="366.77" y1="78.945" y2=".686" gradientUnits="userSpaceOnUse"><stop stop-color="#5b87fd"/><stop offset=".232" stop-color="#77a3fd"/><stop offset=".557" stop-color="#9ac5fd"/><stop offset=".824" stop-color="#afdafd"/><stop offset="1" stop-color="#b7e2fe"/></linearGradient><linearGradient id="b" x1="-19.848" x2="330.171" y1="81.258" y2="-27.414" gradientUnits="userSpaceOnUse"><stop stop-color="#da89f5"/><stop offset=".16" stop-color="#d585f4"/><stop offset=".335" stop-color="#c87cf2"/><stop offset=".518" stop-color="#b26def"/><stop offset=".707" stop-color="#9357ea"/><stop offset=".897" stop-color="#6c3ce4"/><stop offset="1" stop-color="#542be1"/></linearGradient><linearGradient id="c" x1="79.216" x2="166.087" y1="115.064" y2="-34.958" gradientUnits="userSpaceOnUse"><stop stop-color="#7954f8"/><stop offset="1" stop-color="#2525d4"/></linearGradient><linearGradient id="d" x1="188.749" x2="188.127" y1="94.798" y2="19.385" gradientUnits="userSpaceOnUse"><stop stop-color="#15125e"/><stop offset="1" stop-color="#3a53f9"/></linearGradient><linearGradient id="e" x1="45.162" x2="314.177" y1="50.752" y2="46.228" gradientUnits="userSpaceOnUse"><stop stop-color="#3a53f9"/><stop offset="1" stop-color="#80afff"/></linearGradient><linearGradient id="f" x1="129.77" x2="142.127" y1="-4.617" y2="106.141" gradientUnits="userSpaceOnUse"><stop offset=".041" stop-color="#b7e2fe"/><stop offset=".17" stop-color="#bbd5fc"/><stop offset=".404" stop-color="#c8b4f9"/><stop offset=".678" stop-color="#db87f4"/><stop offset=".793" stop-color="#c57ff7"/><stop offset=".867" stop-color="#b57afb"/><stop offset="1" stop-color="#6d9afe"/></linearGradient></defs></svg>